<?xml version="1.0" standalone="no"?>
<!DOCTYPE svg PUBLIC "-//W3C//DTD SVG 20010904//EN"
 "http://www.w3.org/TR/2001/REC-SVG-20010904/DTD/svg10.dtd">
<svg version="1.0" xmlns="http://www.w3.org/2000/svg"
 width="200.000000pt" height="200.000000pt" viewBox="0 0 200.000000 200.000000"
 preserveAspectRatio="xMidYMid meet">

<g transform="translate(0.000000,200.000000) scale(0.100000,-0.100000)"
fill="#000000" stroke="none">
<path d="M747 1553 c-48 -3 -70 -8 -74 -18 -3 -10 -13 -13 -27 -9 -20 5 -27
-6 -75 -114 l-53 -119 53 -153 53 -153 -21 -39 c-12 -21 -18 -40 -15 -42 16
-9 72 7 88 25 16 18 16 26 -10 152 -15 73 -26 153 -24 180 l3 47 32 -22 c29
-21 32 -29 43 -115 7 -51 15 -93 18 -93 3 0 24 21 46 46 l41 46 34 -93 c32
-89 35 -123 16 -171 -6 -16 0 -18 53 -18 70 0 64 -8 83 123 l12 87 108 0 109
0 30 -59 c16 -33 28 -66 26 -73 -2 -7 -7 -28 -10 -45 l-5 -33 58 0 58 0 13
163 c7 89 16 170 20 181 6 16 8 14 19 -13 15 -36 36 -42 27 -8 -3 12 -13 55
-23 96 -17 71 -19 75 -91 142 l-75 68 -201 -6 -202 -6 -17 26 c-10 15 -25 26
-35 25 -9 -1 -48 -3 -85 -5z m83 -19 c0 -3 -18 -84 -40 -179 -22 -95 -40 -181
-40 -191 0 -9 -2 -15 -5 -12 -4 4 -55 351 -55 373 0 4 50 9 113 13 15 1 27 -1
27 -4z m96 -111 c32 -46 35 -54 23 -70 -27 -37 -183 -222 -186 -220 -2 3 72
336 83 371 7 22 11 18 80 -81z m-251 67 c1 -8 5 -40 9 -70 4 -30 9 -70 13 -89
l6 -34 -32 19 -31 18 0 89 c0 77 2 88 17 85 9 -2 17 -10 18 -18z m574 6 c-14
-13 -340 -236 -345 -236 -4 0 15 25 41 55 l46 55 -45 60 -45 59 87 4 c158 6
265 7 261 3z m167 -171 c-3 -27 -6 -69 -6 -93 l0 -42 -83 -39 -83 -38 -110 4
c-86 4 -123 10 -174 30 -36 14 -75 29 -88 34 -21 8 -2 24 195 162 l218 154 69
-61 68 -61 -6 -50z m-795 -88 c-3 -16 -10 -13 -43 20 l-39 39 38 88 38 88 5
-109 c3 -59 3 -116 1 -126z m27 -164 c12 -56 23 -107 24 -114 2 -6 -2 -13 -7
-15 -6 -2 -34 67 -63 153 l-52 157 39 -39 c35 -36 41 -50 59 -142z m285 62
c37 -15 67 -32 67 -39 0 -6 -5 -53 -12 -104 -11 -82 -15 -92 -31 -90 -15 2
-30 34 -67 136 -26 73 -43 131 -36 129 6 -3 41 -17 79 -32z m463 -52 c-12
-141 -18 -183 -27 -183 -8 0 -103 176 -104 193 0 7 111 65 129 66 4 1 5 -34 2
-76z m-765 -156 c-13 -13 -26 -3 -16 12 3 6 11 8 17 5 6 -4 6 -10 -1 -17z
m289 -19 c0 -5 -6 -8 -14 -8 -9 0 -12 7 -9 21 4 16 8 17 14 7 5 -7 9 -16 9
-20z m405 -6 c-22 -5 -27 1 -19 23 7 17 8 17 21 -1 12 -17 12 -19 -2 -22z"/>
<path d="M692 848 c-16 -16 -15 -33 4 -52 19 -20 54 -5 54 22 0 20 -18 42 -35
42 -6 0 -16 -5 -23 -12z"/>
<path d="M320 807 c-39 -20 -52 -75 -48 -202 4 -120 14 -147 61 -166 43 -18
88 -1 110 41 15 29 17 56 15 163 -3 127 -3 129 -31 153 -31 26 -69 30 -107 11z
m74 -53 c8 -20 8 -238 0 -258 -10 -25 -51 -20 -58 7 -9 36 -7 213 4 241 11 29
44 35 54 10z"/>
<path d="M1230 625 l0 -196 28 3 27 3 -1 145 -2 145 30 -123 c39 -159 52 -161
89 -12 l27 105 3 -130 4 -130 25 0 25 0 0 190 0 190 -32 3 c-39 4 -44 -5 -73
-127 -21 -92 -30 -110 -31 -65 0 16 -10 65 -22 109 l-22 80 -37 3 -38 3 0
-196z"/>
<path d="M583 735 c-14 -10 -24 -12 -28 -5 -3 5 -15 10 -26 10 -19 0 -19 -7
-17 -152 l3 -153 25 0 25 0 3 133 c2 105 5 132 17 132 8 0 15 -12 17 -27 2
-20 9 -28 23 -28 17 0 20 7 20 39 0 50 -29 74 -62 51z"/>
<path d="M823 726 c-27 -24 -28 -27 -28 -123 0 -78 4 -105 18 -126 19 -29 63
-37 85 -15 9 9 12 5 12 -19 0 -17 -3 -38 -6 -47 -9 -22 -41 -20 -54 4 -23 43
-58 13 -36 -31 9 -19 21 -25 58 -27 40 -3 49 1 67 24 20 25 21 39 21 200 0
167 -1 174 -20 174 -11 0 -20 -4 -20 -9 0 -6 -12 -3 -27 5 -36 18 -37 18 -70
-10z m81 -42 c3 -9 6 -51 6 -94 0 -57 -4 -81 -15 -90 -12 -10 -18 -10 -30 0
-11 9 -15 33 -15 90 0 91 5 110 30 110 10 0 21 -7 24 -16z"/>
<path d="M1053 735 c-33 -14 -51 -51 -39 -81 9 -23 39 -13 46 16 4 16 14 26
28 28 20 3 22 -1 22 -37 0 -37 -3 -42 -41 -61 -68 -35 -86 -122 -33 -157 19
-12 30 -13 56 -4 22 8 34 8 36 1 2 -5 12 -10 23 -10 18 0 19 9 19 134 0 113
-3 137 -17 154 -24 28 -61 35 -100 17z m57 -206 c0 -47 -2 -50 -22 -47 -32 4
-36 50 -9 77 12 12 23 21 26 21 3 0 5 -23 5 -51z"/>
<path d="M1592 740 c-38 -16 -54 -72 -50 -173 3 -83 5 -90 31 -113 34 -29 66
-31 101 -3 35 28 38 82 4 77 -15 -2 -24 -11 -26 -26 -3 -17 -9 -22 -25 -20
-19 3 -22 11 -25 51 l-3 47 49 0 c49 0 49 1 55 35 6 39 -7 98 -26 113 -19 16
-60 22 -85 12z m56 -83 c3 -34 1 -37 -22 -37 -23 0 -26 4 -26 33 0 38 7 49 30
45 9 -2 16 -16 18 -41z"/>
<path d="M690 585 l0 -155 25 0 25 0 0 155 0 155 -25 0 -25 0 0 -155z"/>
</g>
</svg>
